<?xml version="1.0" encoding="utf-8"?>
<!-- Generator: Adobe Illustrator 23.1.0, SVG Export Plug-In . SVG Version: 6.00 Build 0)  -->
<svg version="1.1" id="Layer_1" xmlns="http://www.w3.org/2000/svg" xmlns:xlink="http://www.w3.org/1999/xlink" x="0px" y="0px"
	 viewBox="0 0 39.8 44" style="enable-background:new 0 0 39.8 44;" xml:space="preserve">
<style type="text/css">
	.st0{fill:#FFFFFF;}
</style>
<title>logout, turn, off, on, power</title>
<g>
	<path class="st0" d="M39.8,24c0,11-8.9,19.9-19.9,20C9,44,0,35.1,0,24.1C0,16,4.9,8.6,12.4,5.6c1-0.4,2.2,0.2,2.5,1.3
		c0.3,1-0.1,2-1,2.4C5.8,12.6,1.9,21.9,5.2,30s12.6,12.1,20.7,8.7S38,26.2,34.7,18c-1.6-4-4.8-7.1-8.7-8.7c-1-0.4-1.6-1.5-1.3-2.5
		s1.5-1.6,2.5-1.3c0.1,0,0.2,0.1,0.2,0.1C34.9,8.6,39.9,15.9,39.8,24z M19.9,22.7c1.1,0,2-0.9,2-2V2c0-1.1-0.9-2-2-2s-2,0.9-2,2
		v18.7C17.9,21.8,18.8,22.7,19.9,22.7z"/>
</g>
</svg>
