<svg width="179" height="40" version="1.1" xmlns="http://www.w3.org/2000/svg" xmlns:xlink="http://www.w3.org/1999/xlink"><defs><path id="path-1" d="M0 .197h33.09V36H0z"/></defs><g id="Page-1" stroke="none" stroke-width="1" fill="none" fill-rule="evenodd"><g id="Home-Desk" transform="translate(-208 -31)"><g id="Group-11" transform="translate(208 31)"><g id="Group-10" transform="translate(0 .482)"><path d="M128.807 27.837c-2.719 0-5.207-1.95-5.207-5.759 0-3.9 2.488-5.712 5.207-5.712 2.717 0 5.16 1.811 5.16 5.712 0 3.855-2.443 5.76-5.16 5.76zm1.52-17.834c-3.133 0-5.667 1.3-6.634 2.741V.534l-.514-.516h-5.84l-.511.516v32.594l.51.515h5.84l.515-.515v-1.944c1.098 1.695 3.4 2.97 6.357 2.97 6.403 0 10.918-5.062 10.918-12.122 0-6.92-4.008-12.029-10.642-12.029zm14.3-8.571l-.512.516V7.12l.512.515h5.977l.514-.515V1.947l-.514-.515h-5.977zm21.604 26.405c-2.625 0-5.16-1.904-5.16-5.759 0-3.9 2.535-5.712 5.16-5.712 2.673 0 5.16 1.811 5.16 5.712 0 3.902-2.487 5.76-5.16 5.76zm0-17.973c-6.818 0-12.162 5.062-12.162 12.214 0 7.154 5.344 12.262 12.162 12.262 6.865 0 12.163-5.109 12.163-12.262 0-7.152-5.298-12.214-12.163-12.214zm-21.604.696l-.512.516v22.052l.512.515h5.977l.514-.515V11.076l-.514-.516h-5.977zm-71.116 0h-6.344l-.499.521-4.706 13.831-5.103-13.823-.521-.529h-6.55l-.511.526 8.975 22.044.515.513h6.422l.515-.514 8.32-22.056-.513-.513zm39.237-.232c-1.842 0-4.745.744-5.943 3.344v-1.84h-.015v-.756l-.514-.516h-5.732l-.511.516v22.052l.511.515h5.96l.514-.515V31.41h.018v-7.845c0-4.598 2.533-6.27 5.343-6.27h1.702l.51-.518v-5.822l-.506-.512a7.756 7.756 0 0 0-1.337-.115z" id="Fill-3" fill="#FF1F58"/><g id="Group-7" transform="translate(0 3.5)"><mask id="mask-2" fill="#fff"><use xlink:href="#path-1"/></mask><path id="Fill-5" fill="#FF1F58" mask="url(#mask-2)" d="M32.566.197h-5.987l-.528.529V23.81h-5.986l-.529.529v5.302h-5.983V24.34l-.527-.529H7.038V.726L6.511.197H.524L0 .726V23.81l.524.529h5.99v5.302l.524.528h5.988v5.302l.524.528h5.986l.528-.528V30.17h5.987l.524-.528V24.34h5.99l.525-.529V.726z"/></g><path d="M80.864 19.339c.138-1.72 1.613-3.902 4.561-3.902 3.318 0 4.515 2.136 4.607 3.902h-9.168zm15.868 4.036c.038-.433.073-1.068.073-1.668 0-7.431-4.377-11.843-11.472-11.843-5.943 0-11.425 4.737-11.425 12.168 0 7.756 5.62 12.308 11.932 12.308 5.556 0 9.128-3.063 10.394-6.827l-.362-.66-4.892-1.398-.634.348c-.717 1.546-2.108 2.546-4.413 2.546-2.719 0-5.07-1.858-5.207-4.459h15.497l.51-.515z" id="Fill-8" fill="#FF1F58"/></g></g></g></g></svg>